name ./resultDataOpenSim/trcMotMarkerGrf/sub10/grf-15-04.mot
datacolumns 19
datarows 10
range 1.50000000 1.53600000
endheader

                time	     ground_force_vx	     ground_force_vy	     ground_force_vz	     ground_force_px	     ground_force_py	     ground_force_pz	   l_ground_force_vx	   l_ground_force_vy	   l_ground_force_vz	   l_ground_force_px	   l_ground_force_py	   l_ground_force_pz	     ground_torque_x	     ground_torque_y	     ground_torque_z	   l_ground_torque_x	   l_ground_torque_y	   l_ground_torque_z	
          1.50000000	         21.11266830	        415.12334317	         -7.90110580	          0.88665114	          0.00000000	         -0.03274077	          0.00000000	          0.00000000	          0.00000000	          0.00000000	          0.00000000	          0.00000000	          0.00000000	          0.91307717	          0.00000000	          0.00000000	          0.00000000	          0.00000000	
          1.50400000	         19.90858290	        406.68363053	         -8.00943484	          0.88705032	          0.00000000	         -0.03288675	          0.00000000	          0.00000000	          0.00000000	          0.00000000	          0.00000000	          0.00000000	          0.00000000	          0.95559196	          0.00000000	          0.00000000	          0.00000000	          0.00000000	
          1.50800000	         18.31806182	        398.95117217	         -9.21324124	          0.88751580	          0.00000000	         -0.03299695	          0.00000000	          0.00000000	          0.00000000	          0.00000000	          0.00000000	          0.00000000	          0.00000000	          1.01184817	          0.00000000	          0.00000000	          0.00000000	          0.00000000	
          1.51200000	         16.89196385	        391.86605037	        -11.24541494	          0.88794650	          0.00000000	         -0.03308041	          0.00000000	          0.00000000	          0.00000000	          0.00000000	          0.00000000	          0.00000000	          0.00000000	          1.08690541	          0.00000000	          0.00000000	          0.00000000	          0.00000000	
          1.51600000	         16.13481541	        385.38612025	        -13.69492298	          0.88822647	          0.00000000	         -0.03315360	          0.00000000	          0.00000000	          0.00000000	          0.00000000	          0.00000000	          0.00000000	          0.00000000	          1.18061487	          0.00000000	          0.00000000	          0.00000000	          0.00000000	
          1.52000000	         16.36266817	        379.53739099	        -16.10100466	          0.88828617	          0.00000000	         -0.03322495	          0.00000000	          0.00000000	          0.00000000	          0.00000000	          0.00000000	          0.00000000	          0.00000000	          1.28637584	          0.00000000	          0.00000000	          0.00000000	          0.00000000	
          1.52400000	         17.62472797	        374.41476028	        -18.04577936	          0.88813146	          0.00000000	         -0.03329852	          0.00000000	          0.00000000	          0.00000000	          0.00000000	          0.00000000	          0.00000000	          0.00000000	          1.39226487	          0.00000000	          0.00000000	          0.00000000	          0.00000000	
          1.52800000	         19.71024376	        370.14335120	        -19.22667259	          0.88782310	          0.00000000	         -0.03338541	          0.00000000	          0.00000000	          0.00000000	          0.00000000	          0.00000000	          0.00000000	          0.00000000	          1.48430441	          0.00000000	          0.00000000	          0.00000000	          0.00000000	
          1.53200000	         22.22167915	        366.84856721	        -19.50214428	          0.88744872	          0.00000000	         -0.03349849	          0.00000000	          0.00000000	          0.00000000	          0.00000000	          0.00000000	          0.00000000	          0.00000000	          1.55049839	          0.00000000	          0.00000000	          0.00000000	          0.00000000	
          1.53600000	         24.68691020	        364.64723595	        -18.90794837	          0.88711133	          0.00000000	         -0.03364396	          0.00000000	          0.00000000	          0.00000000	          0.00000000	          0.00000000	          0.00000000	          0.00000000	          1.58400655	          0.00000000	          0.00000000	          0.00000000	          0.00000000	
